<svg width="45" height="45" viewBox="0 0 45 45" fill="none" xmlns="http://www.w3.org/2000/svg">
<rect width="45" height="45" rx="22.5" fill="#0F2027"/>
<path d="M14.1203 34C13.5162 34 13.0117 33.797 12.607 33.3911C12.2023 32.9852 12 32.4793 12 31.8733V15.0634C12 14.4574 12.2023 13.9515 12.607 13.5455C13.0117 13.1396 13.5162 12.9367 14.1203 12.9367H16.4422V10.7089C16.4422 10.5046 16.5091 10.3354 16.643 10.2011C16.7768 10.067 16.9455 10 17.1489 10C17.3526 10 17.5214 10.067 17.6552 10.2011C17.7889 10.3354 17.8557 10.5046 17.8557 10.7089V12.9367H27.2453V10.6582C27.2453 10.4709 27.308 10.3143 27.4334 10.1886C27.5587 10.0629 27.7148 10 27.9016 10C28.0882 10 28.2442 10.0629 28.3695 10.1886C28.4951 10.3143 28.5578 10.4709 28.5578 10.6582V12.9367H30.8797C31.4838 12.9367 31.9883 13.1396 32.393 13.5455C32.7977 13.9515 33 14.4574 33 15.0634V31.8733C33 32.4793 32.7977 32.9852 32.393 33.3911C31.9883 33.797 31.4838 34 30.8797 34H14.1203ZM14.1203 32.6835H30.8797C31.0818 32.6835 31.267 32.5992 31.4352 32.4305C31.6034 32.2617 31.6875 32.076 31.6875 31.8733V20.3293H13.3125V31.8733C13.3125 32.076 13.3966 32.2617 13.5648 32.4305C13.733 32.5992 13.9182 32.6835 14.1203 32.6835ZM13.3125 19.0125H31.6875V15.0634C31.6875 14.8607 31.6034 14.675 31.4352 14.5062C31.267 14.3375 31.0818 14.2531 30.8797 14.2531H14.1203C13.9182 14.2531 13.733 14.3375 13.5648 14.5062C13.3966 14.675 13.3125 14.8607 13.3125 15.0634V19.0125ZM17.25 24.1266C17.0632 24.1266 16.9071 24.0637 16.7818 23.938C16.6564 23.8123 16.5937 23.6557 16.5937 23.4683C16.5937 23.281 16.6564 23.1244 16.7818 22.9987C16.9071 22.873 17.0632 22.8101 17.25 22.8101H27.75C27.9368 22.8101 28.0929 22.873 28.2182 22.9987C28.3436 23.1244 28.4062 23.281 28.4062 23.4683C28.4062 23.6557 28.3436 23.8123 28.2182 23.938C28.0929 24.0637 27.9368 24.1266 27.75 24.1266H17.25ZM17.25 29.3924C17.0632 29.3924 16.9071 29.3295 16.7818 29.2038C16.6564 29.0781 16.5937 28.9215 16.5937 28.7342C16.5937 28.5468 16.6564 28.3902 16.7818 28.2645C16.9071 28.1388 17.0632 28.0759 17.25 28.0759H23.8125C23.9993 28.0759 24.1554 28.1388 24.2807 28.2645C24.4061 28.3902 24.4687 28.5468 24.4687 28.7342C24.4687 28.9215 24.4061 29.0781 24.2807 29.2038C24.1554 29.3295 23.9993 29.3924 23.8125 29.3924H17.25Z" fill="white"/>
</svg>
